<?xml version="1.0" encoding="iso-8859-1"?>
<!-- Generator: Adobe Illustrator 16.0.0, SVG Export Plug-In . SVG Version: 6.00 Build 0)  -->
<!DOCTYPE svg PUBLIC "-//W3C//DTD SVG 1.1//EN" "http://www.w3.org/Graphics/SVG/1.1/DTD/svg11.dtd">
<svg version="1.1" id="Capa_1" xmlns="http://www.w3.org/2000/svg" xmlns:xlink="http://www.w3.org/1999/xlink" x="0px" y="0px"
	 width="40px" height="40px" viewBox="0 0 94 94" style="enable-background:new 0 0 94 94;" xml:space="preserve" >
<g>
	<path d="M89,0H5C2.239,0,0,2.238,0,5v84c0,2.762,2.239,5,5,5h84c2.762,0,5-2.238,5-5V5C94,2.238,91.762,0,89,0z M50.872,20.914
		c0.497-4.614,6.01-11.685,10.429-10.669c4.397,1,8.422,6.848,7.605,11.874c-0.797,5.033-4.788,11.675-11.016,10.86
		C51.672,32.184,50.268,26.556,50.872,20.914z M37.839,8.234c4.65,0,8.41,5.352,8.41,11.976c0,6.622-3.76,11.98-8.41,11.98
		c-4.655,0-8.424-5.358-8.424-11.98C29.415,13.586,33.185,8.234,37.839,8.234z M11.573,36.603c0,0,0.996-9.855,7.818-10.462
		c5.418-0.475,9.411,5.458,9.827,8.856c0.247,2.203,1.397,12.284-7.028,14.096C13.778,50.905,10.647,41.166,11.573,36.603z
		 M75.736,79.077c-4.604,10.871-21.454,5.222-21.454,5.222s-6.216-2.006-13.44-0.396c-7.207,1.611-13.424,1.006-13.424,1.006
		s-8.435,0.203-10.841-10.463c-2.398-10.67,8.417-16.514,9.227-17.508c0.804-1.015,6.412-4.83,10.02-10.873
		c3.616-6.027,14.439-10.862,22.068,1.007c5.619,8.051,15.242,15.496,15.242,15.496S80.35,68.212,75.736,79.077z M74.337,54.316
		c-9.233,0.199-9.622-6.237-9.622-10.858c0-4.837,0.983-11.688,8.42-11.688c7.424,0,9.416,7.258,9.416,9.664
		C82.551,43.858,83.562,54.114,74.337,54.316z"/>
</g>
<g>
</g>
<g>
</g>
<g>
</g>
<g>
</g>
<g>
</g>
<g>
</g>
<g>
</g>
<g>
</g>
<g>
</g>
<g>
</g>
<g>
</g>
<g>
</g>
<g>
</g>
<g>
</g>
<g>
</g>
</svg>
